<svg xmlns="http://www.w3.org/2000/svg" viewBox="409.5 383 1278 1278">
	<path fill="#353535"
		d="M1356.084 775.483v55.449h15.34v19.34h-15.403v23.195h-20.222v20.353h20.716c0 1.687-.04 3.108.007 4.527.404 12.31 1.049 24.617 1.167 36.93.095 9.977-.656 19.96-.656 29.94-.008 98.828.08 197.656.106 296.484.02 75.662-.14 151.325.11 226.987.04 12.123-3.776 22.017-11.928 30.71-27.018 28.806-58.33 52.094-92.23 72.067-55.293 32.577-114.908 52.69-178.542 60.298-71.957 8.603-142.314.81-210.68-23.406-62.36-22.089-117.91-55.54-166.19-100.883-2.669-2.506-5.062-5.302-7.612-7.935-8.78-9.064-12.675-19.652-12.626-32.504.299-78.327.162-156.656.169-234.985.018-194.489.036-388.977.051-583.466.003-30.498.481-61.007-.217-91.49-.342-14.966 4.73-26.72 14.863-37.221 19.294-19.997 40.678-37.423 63.467-53.222 47.305-32.796 99.19-55.508 154.661-70.336 1.408-.376 2.856-.599 4.787-.997 1.325 13.355 8.173 21.392 22.034 23.058-2.001 7.202-2.118 14.055 1.975 20.32 4.255 6.512 10.983 8.154 18.529 8.747-1.167 6.583-.81 12.737 3.103 18.205 3.991 5.576 9.853 7.555 16.278 8.194-2.26 28.362 9.555 48.765 32.027 55.694 20.14 6.21 41.525-2.198 52.079-20.476 11.187-19.375 7.7-43.568-8.183-58.694-13.283-12.65-37.126-18.383-58.529-1.93-4.13-8.64-11.118-12.855-21.123-12.27 1.43-6.882 1.8-13.131-2.182-19-3.912-5.767-9.83-7.516-14.904-8.536v-21.779c13.896-1.23 28.066-2.958 42.286-3.663 61.833-3.062 121.862 6.252 180.2 26.881 3.119 1.103 3.906 2.592 3.796 5.714-.257 7.283-.082 14.58-.082 22.474h34.113v-9.759c9.887 5.514 18.755 10.46 28.031 16.018.645 7.843.882 15.074 1.119 22.305V527.6h30.007v56.232h25.523v30.21h27.357v30.02c-9.298 0-18.534 0-28.503.035-.873.324-1.012.613-1.151.902v29.346c9.753 0 19.486 0 29.62-.19.4-.19.336-.247.336-.247v28.48h-29.906v30.157h29.892c0-8.106 0-16.341.307-25.056.307-.48.734-.68.734-.68h26.147c0 12.036 0 23.746-.42 36.062-2.352.657-4.282.75-6.212.754-7.355.018-14.71.007-22.01.007v31.851h28.574m-168.962 550.837s.336-.33.808-.481c.382-.282.764-.563 1.057-.846 0 0-.006.089.68.046 1.133-.676 2.267-1.352 3.335-2.04 0 0 .007.066.693-.035 4.093-4.298 8.187-8.595 13.002-12.72 1.366 4.497 2.572 9.054 4.197 13.456.488 1.32 2.12 3.113 3.27 3.144 6.06.165 12.135-.165 18.902.13 4.29.58 2.423-2.752 2.423-4.3-.005-29.42-.157-58.84-.263-88.26-.025-6.98-.038-13.962.035-20.943.026-2.421-.435-4.01-4.277-3.134-18.295-.065-36.59-.078-54.884-.244-3.016-.027-4.145.946-4.073 3.999.165 6.982.072 13.97.09 20.956.032 12.612.034 12.612 12.365 12.837.498.01 1.186-.206 1.464.042 1.146 1.026 3.07 2.17 3.094 3.306.207 9.806.462 19.648-.201 29.417-.22 3.227-2.314 7.851-4.881 9.097-6.535 3.17-7.293 7.913-6.92 14.112.398 6.63.08 13.301.119 19.954.009 1.585.187 3.169.355 5.83 3.174-1.18 5.539-2.06 8.226-2.984.317-.044.627-.118 1.384-.34M888.968 801.867c-.33-.116-.658-.233-.906-.326 0 0 .015-.078-.813-.462-5.352-1.038-10.695-2.13-16.06-3.096-3.24-.584-4.4.935-4.35 4.173.156 9.964.001 19.934.232 29.896.033 1.425 1.205 3.612 2.397 4.095 8.49 3.44 11.367 10.166 11.496 18.612.11 7.142-.067 14.29.201 21.424.05 1.314 1.619 3.687 2.492 3.689 12.928.034 25.856-.25 39.27.069 2.496 1.26 3.218.317 3.15-2.257-.205-7.829.13-15.691-.461-23.486-1.089-14.344-4.394-27.972-15.252-38.523l-.168-.428s-.383-.207-.677-.788c-4.514-3.174-9.028-6.349-13.534-9.438 0 0 .086-.001-.353-.418-.557-.222-1.114-.444-1.653-.568 0 0 .1-.006-.366-.349-.706-.21-1.412-.419-2.437-.968 0 0-.452-.115-.657-.22-.222-.036-.446-.056-1.551-.63m171.915 312.277c-.968-.571-1.936-1.142-3.252-2.244-8.768-5.64-18.68-7.55-28.787-8.797-2.25-.278-3.851.192-3.892 3.069-.133 9.433-.515 18.863-.61 28.297-.04 3.947.86 7.294 5.479 8.852 4.57 1.542 7.379 5.453 7.89 10.144.713 6.562.684 13.208.883 19.822.105 3.474-.282 6.994.178 10.41.163 1.21 2.173 3.093 3.35 3.101 12.973.09 25.948-.13 39.682-.082.583-.972 1.678-1.948 1.672-2.916-.073-10.446.304-20.95-.665-31.323-1.409-15.092-7.39-28.124-20.661-37.463-.268-.197-.569-.298-1.267-.87m-157.058-.723c-.599-.216-1.198-.431-2.244-1.193-13.291-5.467-27.287-5.172-41.264-5.063-3.114.024-3.312 2.078-3.302 4.422.038 8.824.039 17.647.052 26.471.011 6.924.01 6.924 7.02 6.976 11.519.087 17.484 4.565 19.06 16.084.952 6.96.626 14.25-.221 21.26-.999 8.26-7.554 13.327-15.96 13.666-1.829.074-3.68.215-5.49.028-3.985-.412-5.318 1.426-5.258 5.214.131 8.297.042 16.598.025 24.897-.014 6.838-.025 6.838 7.031 6.947 11.763.182 18.493 4.978 19.94 16.61 1.224 9.82.815 19.922.333 29.86-.696 14.37-.456 28.593 3.65 42.477.465 1.57 2.685 3.7 4.135 3.735 12.646.298 25.301.202 37.954.135 1.088-.006 2.173-.655 3.61-.407l3.78.88c-5.278-10.686-5.725-21.276-5.664-31.968.07-12.145.149-24.292-.03-36.435-.074-4.97-.47-9.991-1.32-14.885-2.318-13.362-8.618-23.968-22.94-29.507 10.843-3.562 17.857-10.088 20.776-19.81 6.26-20.849 6.333-41.656-3.277-61.696-3.429-7.149-8.788-12.815-16.217-16.123 0 0 .066-.01-.197-.648-1.279-.472-2.558-.944-3.82-1.33 0 0 .086-.01-.162-.597m282.936-265.399l-.12-.026s.14-.216.858 1.42c.292.519.584 1.038.634 1.748l-.015.67c.093-.216.185-.433.545 1.225.182 1.249.363 2.498.404 3.27.069 1.22.137 2.44.122 4.847.003 8.635.006 17.27.047 25.606-.004 9.013-.01 18.026-.07 28.283.008 5.336.015 10.67-.078 15.665.06 12.663.118 25.326-.227 40.107-.402 1.378-.803 2.757-.832 3.874l-.138-.406c.01.29.109.615.012.864-.155.403-.439.756-1.075 2.142-2.177 2.365-4.353 4.73-6.195 6.752-1.197.633-2.39 1.273-3.597 1.887-.087.045-.27-.1-.409-.156.112-.04.224-.08-.845.375-3.766.366-7.53.732-10.97.883-.607-.013-1.213-.028-1.82-.032-.057 0-.116.074-1.125 1.155-.21 2.33-.421 4.66-.167 6.807-.074 2.672-.227 5.345-.208 8.017.045 6.45.171 12.901 1.128 20.075 8.31-.117 16.621-.235 24.59-.127.714-.087 1.428-.175 3.72-.158 1.52-.38 3.038-.76 4.832-.847 5.757-2.099 11.879-3.525 17.2-6.421 16.381-8.915 23.558-24.207 23.887-41.747.753-40.083.41-80.196-.055-120.29-.145-12.516-4.214-24.32-12.742-33.886-3.069-3.442-7.333-5.817-11.044-8.609 0 0 .07-.018.116-.656-.591-.036-1.182-.072-2.1-.654-.308-.278-.616-.556-1.336-1.364-5.02-1.66-10.039-3.321-16.91-5.577-1.286-.163-2.57-.326-3.621-.732-.845.083-1.69.166-3.579.012-2.109-.224-4.225-.687-6.326-.628-5.641.161-11.276.545-17.073.654l-.277.003s.353.298-.238 1.154c-.064 9.085-.127 18.17-.362 27.013-.109.062-.284.105-.309.191-.03.105.066.247.108.372.122-.07.244-.139.156 1.16.363 1.76.726 3.518.779 5.457 1.071.199 2.142.398 4.637.708 2.832.144 5.663.288 8.342.628.058-.057.116-.115 1.37.301.808.286 1.617.571 2.308.894 0 0-.043-.047 1.78 1.003.628.311 1.257.622 1.554.624 1.018 1.033 2.037 2.067 3.945 4.78.319.548.637 1.095.79 1.69m-179.456 141.959c-1.444-.348-2.887-.696-4.312-.976 0 0 .069-.017-.138-.668-6.146-4.458-7.833-10.842-7.833-17.99 0-37.815-.064-75.63-.003-113.446.024-14.552 3.566-18.904 17.601-22.17v-37.567c-2.326.456-4.303.843-7.177.999-10.734-.063-20.711 2.94-30.004 8.03-19.733 10.808-27.707 28.91-28.119 50.114-.714 36.772-.573 73.574-.009 110.35.277 17.982 5.78 34.464 20.33 46.503 11.18 9.249 24.132 13.63 39.159 13.595.4.076.802.151 1.859.429l4.061-.274c0-11.274-.154-21.907.082-32.53.086-3.844-1.583-4.624-5.497-4.4m49.705 331.036s.015.073.709.37c13.185-7.546 21.802-18.997 23.955-33.706 2.076-14.188 1.68-28.743 2.158-43.144.025-.76-1.922-1.584-3.808-2.48-11.619-.258-23.237-.645-34.857-.72-6.404-.04-6.983.738-7.002 6.736-.027 8.314.066 16.63-.056 24.943-.115 7.893-2.17 14.74-10.21 18.386-1.243.564-2.661 2.432-2.686 3.722a753.187 753.187 0 00.051 32.42c.026 1.083 2.414 3.2 3.296 3.003 7.86-1.756 15.626-3.924 24.071-6.342 1.482-1.052 2.965-2.105 4.379-3.188m.792-509.709c-1.037-.418-2.073-.837-3.637-1.658-9.532-8.67-21.42-10.63-33.595-11.54-.774-.057-2.442 2.097-2.463 3.245a838.06 838.06 0 00-.017 30.993c.025 1.383 1.094 3.451 2.25 4 8.423 3.992 10.374 11.658 10.431 19.602.275 38.328.226 76.658.07 114.987-.033 7.825-2.504 14.69-10.39 18.513-1.28.62-2.233 3.144-2.297 4.828-.266 6.99-.137 13.994-.148 20.993-.006 3.749-.001 7.497-.001 11.608 14.301-.649 26.754-3.474 37.716-12.827 1.452-.644 3.234-.953 4.292-1.997 2.829-2.79 5.647-5.683 7.936-8.914 8.202-11.58 10.953-24.834 10.982-38.733.073-34.624.093-69.249-.103-103.872a79.048 79.048 0 00-2.03-17.305c-2.871-12.354-8.044-23.537-18.797-31.23 0 0 .055-.038-.199-.693M854.98 990.017s.1.008-.264-.574c-5.35-2.667-8.24-7.145-9.044-12.911-.48-3.439-.627-6.947-.628-10.425-.016-35.92.032-71.842.056-107.763.01-14.986 2.898-19.037 16.93-23.45v-37.341c-2.123.242-4.011.458-6.798.542-20.19 1.191-37.234 8.351-48.51 26.039-6.64 10.417-9.288 22.317-9.353 34.297-.212 38.473-.61 76.99.945 115.414 1.39 34.331 25.474 51.155 58.366 53.165h4.9v-36.596c-2.376-.179-4.489-.338-6.6-.397m160.536 302.304c-5.518-.885-9.131-4.228-10.5-9.408-1.09-4.129-1.649-8.517-1.666-12.793-.144-36.295-.165-72.59-.1-108.886.025-13.284 3.81-17.82 16.681-20.727v-37.853c-2.265.523-4.11.949-6.854 1.316-3.628.364-7.353.322-10.866 1.166-12.43 2.989-24.048 7.52-32.75 17.638-10.076 11.715-14.034 25.716-14.213 40.58-.436 36.112-.442 72.236.069 108.345.112 7.951 2.169 16.197 4.918 23.728 8.5 23.283 33.054 35.412 54.554 34.487.4.054.801.107 1.809.415 2.126.183 3.903.274 3.868-2.864-.125-11.444-.05-22.891-.05-34.801-1.717 0-3.006 0-4.9-.343m150.884 1.295c-8.164-2.89-12.366-8.69-12.405-18.783-.15-38.62-.176-77.24.026-115.86.063-11.89 5.105-16.897 16.885-18.092v-37.97c-2.232.474-4.06.862-6.782 1.089-32.251-.18-57.224 23.839-58.111 56.06a2013.054 2013.054 0 00-.722 43.894c-.127 22.135-.37 44.276.034 66.404.316 17.337 5.18 33.16 18.782 45.109 11.753 10.325 25.249 15.725 41.671 14.448.406.103.811.206 2.094.599 1.96.02 4.075.559 4.048-2.711-.094-11.125-.036-22.251-.036-33.898-1.97 0-3.408 0-5.484-.289m66.348-109.812c.73-.9 2.083-1.794 2.093-2.702.075-6.993.172-14.006-.272-20.98-.955-15.02-5.135-28.84-16.45-39.566-1.314-1.244-3.358-1.717-5.36-3.17-8.543-8.94-19.763-11.59-31.362-13.343-3.028-.458-4.57.403-4.579 3.919-.024 9.809-.491 19.617-.477 29.425.003 1.634 1.142 4.168 2.444 4.752 8.119 3.638 10.142 10.458 10.292 18.372.12 6.324.088 12.653.064 18.979-.01 2.403.325 4.359 3.4 4.321 13.135-.162 26.27-.296 40.207-.007M921.945 938.213c-12.326-.071-24.655-.049-36.98-.274-3.489-.064-4.179 1.493-4.136 4.521.121 8.496.223 17-.013 25.49-.253 9.14-1.902 17.635-11.793 21.779-1.142.478-2.035 2.916-2.064 4.464-.179 9.494.017 18.995-.116 28.49-.045 3.203.94 4.546 4.297 4.259 10.168-.869 19.615-3.718 28.39-9.49 1.616-.729 3.394-1.228 4.824-2.226 9.5-6.632 15.629-15.683 18.656-26.816 4.299-15.812 2.595-32.018 2.87-48.083.01-.63-1.977-1.293-3.935-2.114m-76.088 169.084c-12.33-.029-24.66-.074-36.99-.079-6.698-.002-6.777.103-6.779 6.626-.017 67.819-.034 135.638-.047 203.457 0 1.833-.381 3.807.182 5.453.446 1.303 2.064 3.134 3.171 3.141 13.65.086 27.302-.121 41.494.121 3.399 1.324 2.608-1.206 2.623-2.898.292-33.972.68-67.944.814-101.917.09-22.652-.34-45.305-.24-67.957.062-13.941.656-27.881 1.078-41.82.097-3.209-.422-5.438-5.306-4.127m260.573-83.955c14.576-.012 29.151-.024 44.49.325 2.982.883 3.741-.353 3.628-3.256-.51-13.07-1.249-26.15-1.17-39.22.297-48.845.898-97.688 1.345-146.532.091-9.985-.074-19.973.053-29.957.045-3.627-1.346-4.496-5.474-3.369-12.328-.057-24.657-.132-36.986-.164-7.37-.019-7.4.011-7.401 7.392-.005 69.494-.005 138.989.041 208.483.002 1.947.54 3.893.69 5.905 0 0-.005-.226.784.393m218.845-219.125V780.29h-28.613v29.459h28.61c0-1.658 0-3.13.003-5.532m-169.239-357.925h-27.712v28.329h28.326c0-9.39 0-18.511-.614-28.329m134.168 305.747h-24.807v28.465h28.296c0-8.86.077-17.333-.112-25.799-.02-.906-1.59-1.778-3.377-2.666m-71.552-182.61v14.46h28.156v-28.015h-28.157l.001 13.555m54.43 73.514c.754-.623 2.155-1.235 2.166-1.87.145-8.59.097-17.184.097-25.761h-27.301v27.63h25.038m-68.583 44.043h13.279v-27.088h-26.495v27.09c4.296 0 8.26 0 13.216-.002m-45.883-133.81h22.181v-26.848h-26.755c0 8.2.144 16.012-.071 23.814-.085 3.069 1.478 3.205 4.645 3.035m48.777-63.39h-20.866v25.982h26.028V489.78c-1.579 0-2.884 0-5.162.007m93.97 382.314c.583-.429 1.662-.846 1.672-1.288.117-5.249.076-10.502.076-15.578h-17.496v16.843c5.134 0 9.953 0 15.748.023m20.12 43.935c-1.28 3.625-.165 5.29 3.83 5.006 2.727-.194 5.48-.037 8.244-.037.254-1.68.35-2.654.552-3.606 1.437-6.795 1.452-6.755-5.077-5.483-1.274.248-2.83-.337-3.898.19-1.312.646-2.248 2.055-3.65 3.93z" />
	<path fill="#353535"
		d="M988.734 485.999c2.047-1.404 3.96-3.075 6.163-4.164 8.979-4.442 18.218.155 20.235 9.936.263 1.277.438 2.572.67 3.95 9.428-5.242 15.682-5.39 20.742-.624 4.253 4.007 5.363 10.459 2.77 16.093-2.603 5.653-7.883 8.642-14.182 8.027-6.728-.657-10.119-4.798-12.26-14.455-3.9 1.373-7.81 3.753-11.84 3.977-11.244.626-17.25-10.386-12.394-22.525.143-.37.096-.215.096-.215z" />
	<path fill="#108FE5"
		d="M1246.208 486.73c-.656-7.14-.893-14.371-1.236-22.046.392-3.963.89-7.482 1.442-11.393h31.972v33.348c-10.577 0-21.168 0-32.178.09z" />
	<path fill="#353535"
		d="M1182.65 409.723c.005-7.428.005-14.385.005-21.577h32.287v31.625h-32.297c0-3.332 0-6.454.005-10.048z" />
	<path fill="#108FE5"
		d="M1351.673 475.987c-9.603.008-18.74.008-28.224.008v-31.793h31.276c0 9.967.057 19.747-.112 29.524-.013.765-1.61 1.502-2.94 2.26zM1294.019 383.397c6.455.006 12.415.006 18.608.006v32.169h-30.346V383.39c3.755 0 7.499 0 11.738.007z" />
	<path fill="#383939"
		d="M1370.025 583.333c6.784.003 13.072.003 19.692.003v30.961h-30.488V583.33c3.423 0 6.86 0 10.796.003z" />
	<path fill="#108FE5"
		d="M1403.007 628.828c6.133.002 11.768.002 17.847.002v31.886h-30.758v-31.89c4.24 0 8.326 0 12.91.002z" />
	<path fill="#F9F9F8"
		d="M1356.055 775.504c-9.408-.02-18.845-.02-28.545-.02v-31.852c7.3 0 14.655.01 22.01-.007 1.93-.005 3.86-.097 6.169-.272.378-.124.34.16.234.78-.056 10.888-.006 21.157.043 31.426 0 0 .06-.035.09-.055z" />
	<path fill="#353535"
		d="M1356.43 775.475c-.513-10.185-.563-20.454-.545-31.204 7.501-.186 14.933.126 22.367.39 2.123.076 4.252.012 6.544.012v30.718c-9.43 0-18.667 0-28.366.084z" />
	<path fill="#383939"
		d="M1306.973 503.057c-.003 8.102-.003 15.712-.003 23.615h-28.487v-29.484h28.493c0 1.557 0 3.467-.003 5.869zM1329.07 673.997c.029-9.566.029-19.164.029-28.983h27.806v28.979c-9.123 0-18.059 0-27.46-.043-.467-.042-.404.015-.375.047z" />
	<path fill="#353535" d="M1349.962 582.147h-18.311V556.18h26.29v25.967h-7.98z" />
	<path fill="#383939"
		d="M988.424 485.6c.31.399.357.244.398.248-1.756.706-3.593 1.323-5.344 2.127-6.019 2.767-12.973 1.574-17.445-3.063-4.18-4.335-5.17-10.671-2.52-16.138 2.676-5.522 8.725-8.656 15.318-7.936 7.564.825 12.82 7.949 11.698 16.303-.368 2.745-1.586 5.377-2.105 8.46zM949.172 410.089c2.96 5.883 2.954 11.372-.962 16.283-3.313 4.156-7.886 6.11-13.284 5.265-6.757-1.058-11.415-5.787-12.177-12.09-.792-6.55 2.544-12.67 8.24-15.118 6.66-2.862 12.9-1.018 18.183 5.66zM952.859 462.078c-6.641-1.739-10.487-5.677-11.227-12.196-.617-5.44.698-10.42 5.45-13.612 5.149-3.457 10.677-3.339 16.03-.257 5.469 3.147 7.883 10.028 5.957 16.522-2.144 7.227-6.781 10.039-16.21 9.543zM1396.538 701.783c1.393.904 3.117 1.784 3.15 2.722.233 6.802.125 13.617.125 20.78h-23.705v-23.499c6.493 0 13.235 0 20.43-.003z" />
	<path fill="#353535" d="M1323.936 553.117h-15.983v-24.775h24.119v24.774h-8.136z" />
	<path fill="#383939" d="M1374.782 884.07v-7.512h16.83v16.873h-16.831v-9.361z" />
	<path fill="#F9F9F8"
		d="M1329.961 706.532c.044.277-.383.478-.618.495-.418-.47-.601-.958-.785-1.447.453.225.906.45 1.403.952zM1299.22 644.927c-.06-.217.08-.506.49-.74.154.322-.034.527-.49.74z" />
	<path fill="#0585DD"
		d="M1164.486 987.267c3.765-.366 7.53-.732 11.9-1.435 1.707-.7 2.81-1.063 3.912-1.426 2.177-2.365 4.353-4.73 6.722-7.619.34-.954.488-1.385.636-1.815a52.7 52.7 0 001.308-5.34c.144-13.657.184-26.109.224-38.561-.007-5.335-.014-10.67-.116-16.734-.021-9.571.052-18.414.126-27.257-.003-8.635-.006-17.27-.052-26.569a83.136 83.136 0 01.062-3.706 322.42 322.42 0 01-.654-4.688c-.108-.942-.18-1.144-.18-1.144-.291-.519-.583-1.038-1.203-2.357-.327-.8-.243-.641-.243-.641-.319-.548-.637-1.095-1.478-2.491a47.972 47.972 0 00-3.091-3.623 56.803 56.803 0 01-2.764-1.456c-.878-.523-.785-.517-.785-.517-.808-.286-1.617-.571-2.974-1.11-.548-.252-.669-.245-.669-.245-2.831-.143-5.662-.287-9.261-.462a29.322 29.322 0 01-3.56-.857c-.363-1.759-.726-3.517-.972-5.941.116-.665.1-.816.1-.816.063-9.086.126-18.17.472-27.618.282-.362.393-.608.393-.608 5.637-.296 11.272-.68 16.913-.84 2.101-.06 4.217.403 6.94.756 1.319.12 2.025.11 2.73.102 1.286.163 2.57.326 4.852.706 6.106 2.107 11.216 3.999 16.326 5.89.308.278.616.556 1.244 1.303.791.587 1.262.705 1.733.823 0 0-.069.018 0 .317 10.658 8.79 17.145 19.784 19.448 33.095 1.02 5.887 1.691 11.909 1.744 17.876.304 34.493.47 68.988.474 103.483.002 11.618-1.835 23.02-8.032 33.115-7.236 11.784-17.582 19.625-31.224 22.791-1.519.38-3.038.761-5.425 1.114a140.737 140.737 0 00-2.51-.04c-8.31.117-16.622.235-25.497-.2-.65-9.486-.734-18.421-.82-27.356.211-2.33.422-4.66 1.203-7.47 1.062-.461 1.555-.445 2.048-.429zM932.546 1324.942c-1.087.35-2.172.999-3.26 1.005-12.653.067-25.308.163-37.954-.135-1.45-.034-3.67-2.164-4.134-3.735-4.107-13.884-4.347-28.106-3.651-42.476.482-9.939.89-20.04-.332-29.861-1.448-11.632-8.178-16.428-19.94-16.61-7.057-.11-7.046-.11-7.032-6.947.017-8.3.106-16.6-.025-24.897-.06-3.788 1.273-5.626 5.259-5.214 1.81.187 3.66.046 5.49-.028 8.405-.34 14.96-5.407 15.959-13.666.847-7.01 1.173-14.3.22-21.26-1.575-11.519-7.54-15.997-19.059-16.084-7.01-.052-7.009-.052-7.02-6.976-.013-8.824-.014-17.647-.052-26.471-.01-2.344.188-4.398 3.302-4.422 13.977-.11 27.973-.404 41.699 5.558.975.76 1.516 1.022 2.057 1.286 0 0-.087.009.098.251 1.423.737 2.661 1.231 3.9 1.726 0 0-.067.01-.121.322 7.364 6.259 13.292 13.343 16.373 22.472 5.533 16.396 5.645 33.107 1.768 49.758-2.669 11.463-9.594 19.6-21.426 22.836-1.34.366-2.554 1.188-5.195 2.456 3.023 1.237 4.677 2.165 6.452 2.598 8.254 2.013 13.885 7.2 17.106 14.774 1.866 4.388 3.625 9.165 3.855 13.844.785 15.955 1.028 31.943 1.166 47.922.095 10.888.724 21.634 4.497 31.974zM1150.157 1023.306c-14.576.012-29.151.024-44.088-.264-.362-.3-.284-.158-.284-.158-.288-1.947-.827-3.893-.829-5.84-.046-69.494-.046-138.989-.041-208.483 0-7.38.032-7.41 7.4-7.392 12.33.032 24.659.107 37.497.69.455 74.167.4 147.807.345 221.447z" />
	<path fill="#0686DD"
		d="M1165.234 1329.547c-15.88 1.645-29.375-3.755-41.128-14.08-13.601-11.948-18.466-27.772-18.782-45.109-.405-22.128-.161-44.27-.034-66.404.084-14.633.319-29.267.722-43.895.887-32.22 25.86-56.24 58.606-55.526.484 10.521.394 20.51.513 30.496.034 2.809-.611 4.505-3.474 5.687-5.652 2.334-8.844 6.936-9.795 12.924a67.285 67.285 0 00-.813 9.92c-.207 23.135-.398 46.272-.439 69.408-.024 13.981.008 27.97.444 41.94.266 8.55 2.592 16.212 12.27 18.995.92.265 2.096 1.798 2.1 2.747.055 10.965-.095 21.931-.19 32.897z" />
	<path fill="#0585DD"
		d="M1006.317 1026.337c-14.543.452-27.496-3.928-38.675-13.177-14.55-12.039-20.053-28.52-20.33-46.502-.564-36.777-.705-73.58.01-110.351.411-21.205 8.385-39.306 28.118-50.114 9.293-5.09 19.27-8.093 30.535-7.538.619 10.295.616 20.1.843 29.901.083 3.58-1.126 5.687-4.54 7.193-5.215 2.3-8.091 6.834-9.162 12.322-.633 3.242-.925 6.6-.933 9.908-.082 36.922-.106 73.845-.05 110.767.005 3.298.148 6.768 1.158 9.853 1.575 4.807 3.338 9.936 9.772 10.39 0 0-.069.016.046.355 1.199 2.129 3.176 3.896 3.22 5.71.249 10.421.04 20.854-.012 31.283z" />
	<path fill="#0485DC"
		d="M855.819 1026.639c-32.032-1.639-56.117-18.463-57.506-52.794-1.555-38.424-1.157-76.941-.945-115.414.065-11.98 2.712-23.88 9.353-34.297 11.276-17.688 28.32-24.848 48.988-25.523.461 10.994.52 21.474.35 31.95-.026 1.552-.699 3.959-1.793 4.494-9.404 4.596-12.075 12.56-12.075 22.23.002 37.257-.155 74.513-.063 111.77.01 4.074.798 8.284 2.02 12.182 1.601 5.113 5.276 8.36 10.93 8.788 0 0-.1-.008.09.337.344 12.322.497 24.3.65 36.277z" />
	<path fill="#0585DD"
		d="M1054.956 1014.054c-10.196 9.35-22.649 12.175-36.95 12.824 0-4.11-.005-7.86 0-11.608.012-6.999-.117-14.004.15-20.993.063-1.684 1.016-4.208 2.295-4.828 7.887-3.823 10.358-10.688 10.39-18.513.157-38.329.206-76.66-.069-114.987-.057-7.944-2.008-15.61-10.431-19.603-1.156-.548-2.225-2.616-2.25-4a838.06 838.06 0 01.017-30.992c.021-1.148 1.69-3.302 2.463-3.244 12.175.91 24.063 2.869 33.99 12.092 1.429.955 2.462 1.357 3.496 1.76 0 0-.055.038-.297.31 14.355 15.81 18.65 34.681 18.418 55.385-.358 31.763-.152 63.532-.106 95.298.028 19.982-5.446 37.632-21.116 51.099z" />
	<path fill="#0686DD"
		d="M1014.237 1329.605c-20.95 1.234-45.503-10.895-54.003-34.178-2.749-7.531-4.806-15.777-4.918-23.728-.511-36.109-.505-72.233-.07-108.344.18-14.865 4.138-28.866 14.213-40.581 8.703-10.119 20.322-14.65 32.751-17.638 3.513-.844 7.238-.802 11.363-.673.531 10.815.483 21.138.654 31.457.045 2.717-1.224 3.758-3.27 5.339-3.4 2.629-6.917 5.907-8.623 9.703-1.755 3.903-1.877 8.752-1.896 13.191-.154 35.46-.129 70.922-.107 106.383.002 2.819.166 5.677.65 8.448 1.09 6.248 3.844 11.2 10.433 13.406 1.306.438 2.773 2.777 2.8 4.265.202 10.98.058 21.966.023 32.95z" />
	<path fill="#0685DA"
		d="M846.347 1325.642c-13.651.132-27.303.339-40.953.253-1.107-.007-2.725-1.838-3.17-3.14-.564-1.647-.184-3.621-.183-5.454.013-67.819.03-135.638.047-203.457.002-6.523.081-6.628 6.778-6.626 12.33.005 24.66.05 37.451.565.461 71.29.464 142.095.444 212.9 0 1.653-.27 3.306-.414 4.96z" />
	<path fill="#0686DD"
		d="M1232.37 1326.52c-6.07.159-12.145.489-18.206.324-1.15-.031-2.782-1.824-3.27-3.144-1.625-4.402-2.83-8.959-4.651-13.864-4.714 4.138-8.974 8.683-13.234 13.229 0 0-.007-.066-.317-.143-1.444.67-2.577 1.415-3.711 2.16 0 0 .006-.09-.183.018-.572.368-.956.63-1.34.89 0 0-.336.33-.71.443-.693.164-1.013.217-1.332.272l-7.904 2.938c-.168-2.661-.346-4.245-.355-5.83-.038-6.653.279-13.324-.12-19.954-.372-6.199.386-10.942 6.92-14.112 2.568-1.246 4.663-5.87 4.882-9.097.663-9.77.408-19.61.2-29.417-.023-1.135-1.947-2.28-3.093-3.306-.278-.248-.966-.033-1.464-.042-12.33-.225-12.333-.225-12.365-12.837-.018-6.986.075-13.974-.09-20.956-.072-3.053 1.057-4.026 4.073-3.999 18.294.166 36.59.18 55.395.706.59 11.273.716 22.083.742 32.895.068 27.609.091 55.217.132 82.827z" />
	<path fill="#0685DA"
		d="M899.17 1017.31c-8.415 5.914-17.862 8.763-28.03 9.632-3.356.287-4.342-1.056-4.297-4.26.133-9.494-.063-18.995.116-28.489.029-1.548.922-3.986 2.064-4.464 9.89-4.144 11.54-12.639 11.793-21.778.236-8.491.134-16.995.013-25.491-.043-3.028.647-4.585 4.137-4.521 12.324.225 24.653.203 37.465.792.467 10.64.553 20.764.405 30.884-.227 15.45-4.101 29.543-15.797 40.545-2.581 2.428-5.244 4.769-7.869 7.15zM922.442 879.413c-12.929.208-25.857.492-38.785.458-.873-.002-2.442-2.375-2.492-3.69-.268-7.133-.091-14.281-.2-21.423-.13-8.446-3.006-15.172-11.497-18.612-1.192-.483-2.364-2.67-2.397-4.095-.23-9.962-.076-19.932-.231-29.896-.05-3.238 1.108-4.757 4.349-4.173 5.365.966 10.708 2.058 16.423 3.272.363.176.368.263.368.263.33.116.659.233 1.534.625.791.264 1.013.325 1.21.46 0 0 .452.115.808.468 1.087.555 1.817.757 2.547.958 0 0-.1.006.025.248.74.408 1.353.575 1.967.743 0 0-.086 0-.06.298 4.714 4.307 9.4 8.318 14.226 12.652 2.343 4.024 4.894 7.565 6.69 11.455 7.393 16.014 6.048 33.06 5.515 49.99zM1231.946 1183.371c-13.135.144-26.27.278-39.406.44-3.075.038-3.41-1.918-3.4-4.321.024-6.326.055-12.655-.064-18.98-.15-7.913-2.173-14.733-10.292-18.371-1.302-.584-2.441-3.118-2.444-4.752-.014-9.808.453-19.616.477-29.425.009-3.516 1.55-4.377 4.579-3.92 11.6 1.755 22.82 4.404 31.577 13.985 8.419 7.219 13.092 16.018 16.033 25.885 3.855 12.935 3.049 26.225 2.94 39.46z" />
	<path fill="#D3EDF5"
		d="M1150.539 1023.486c-.327-73.82-.272-147.46-.253-221.526 3.144-1.754 4.535-.885 4.49 2.742-.127 9.984.038 19.972-.053 29.957-.447 48.844-1.048 97.687-1.345 146.531-.079 13.072.66 26.151 1.17 39.22.113 2.904-.646 4.14-4.01 3.076z" />
	<path fill="#F9F9F8"
		d="M1325.274 804.682l-.001 5.067h-28.611v-29.46h28.613v24.393zM1156.343 446.64c.307 9.47.307 18.591.307 27.981h-28.326v-28.329c9.197 0 18.454 0 28.02.349zM1290.672 752.04c1.318.887 2.889 1.76 2.91 2.665.188 8.466.111 16.938.111 25.8h-28.296v-28.466h25.275z" />
	<path fill="#D3EDF5"
		d="M1165.506 1329.731c-.177-11.15-.027-22.116-.081-33.081-.005-.95-1.182-2.482-2.1-2.747-9.679-2.783-12.005-10.446-12.271-18.994-.436-13.972-.468-27.96-.444-41.94.04-23.137.232-46.274.439-69.41.03-3.31.294-6.65.813-9.92.951-5.987 4.143-10.59 9.795-12.923 2.863-1.182 3.508-2.878 3.474-5.687-.119-9.986-.029-19.975-.067-30.415 1.78-.84 3.61-1.23 5.841-1.704v37.97c-11.78 1.196-16.822 6.203-16.885 18.093-.202 38.62-.176 77.24-.026 115.86.039 10.093 4.241 15.893 12.71 19.398.3 12.408.295 24.2.29 35.994-.406-.104-.811-.207-1.488-.494z" />
	<path fill="#FFF" d="M1218.652 568.95v-13.076h28.156v28.015h-28.156v-14.938z" />
	<path fill="#CDE9F0"
		d="M1195.625 1021.795c13.504-3.313 23.85-11.154 31.086-22.938 6.197-10.094 8.034-21.497 8.032-33.115-.004-34.495-.17-68.99-.474-103.483-.053-5.967-.725-11.989-1.744-17.876-2.303-13.311-8.79-24.306-19.453-33.13 3.647 2.528 7.911 4.903 10.98 8.345 8.528 9.565 12.597 21.37 12.742 33.886.466 40.094.808 80.207.055 120.29-.329 17.54-7.506 32.832-23.886 41.747-5.322 2.896-11.444 4.322-17.338 6.274z" />
	<path fill="#D3EDF5"
		d="M1014.513 1329.76c-.24-11.139-.097-22.125-.299-33.105-.027-1.488-1.494-3.827-2.8-4.265-6.59-2.207-9.343-7.158-10.433-13.406-.484-2.771-.648-5.63-.65-8.448-.022-35.46-.047-70.922.107-106.383.02-4.439.14-9.288 1.896-13.191 1.706-3.796 5.223-7.074 8.623-9.703 2.046-1.581 3.315-2.622 3.27-5.339-.171-10.32-.123-20.642-.205-31.428 1.797-.89 3.643-1.315 5.908-1.838v37.853c-12.871 2.906-16.656 7.443-16.68 20.727-.066 36.295-.045 72.591.1 108.886.016 4.276.574 8.664 1.665 12.793 1.369 5.18 4.982 8.523 10.76 10.07.246 12.804.23 24.948.215 37.092-.4-.054-.801-.107-1.477-.315z" />
	<path fill="#FFF"
		d="M1272.617 642.943h-24.573v-27.631h27.301c0 8.577.048 17.171-.097 25.761-.011.635-1.412 1.247-2.63 1.87z" />
	<path fill="#CDE9F0"
		d="M932.72 1325.241c-3.947-10.639-4.576-21.385-4.67-32.273-.14-15.979-.382-31.967-1.167-47.922-.23-4.68-1.99-9.456-3.855-13.844-3.221-7.575-8.852-12.761-17.106-14.774-1.775-.433-3.429-1.36-6.452-2.598 2.64-1.268 3.855-2.09 5.195-2.456 11.832-3.236 18.757-11.373 21.426-22.836 3.877-16.65 3.765-33.362-1.768-49.758-3.08-9.129-9.009-16.213-16.37-22.505 7.48 3.03 12.839 8.695 16.268 15.844 9.61 20.04 9.537 40.847 3.277 61.697-2.92 9.72-9.933 16.247-20.776 19.809 14.322 5.539 20.622 16.145 22.94 29.507.85 4.894 1.246 9.914 1.32 14.885.179 12.143.1 24.29.03 36.435-.06 10.692.386 21.282 5.665 31.968-1.827-.425-2.804-.652-3.956-1.179z" />
	<path fill="#DFF2F2"
		d="M846.617 1325.83c-.126-1.84.143-3.494.144-5.147.02-70.805.017-141.61.004-212.844 3.976-1.853 4.495.376 4.398 3.585-.422 13.939-1.016 27.879-1.078 41.82-.1 22.652.33 45.305.24 67.957-.134 33.973-.522 67.945-.814 101.917-.015 1.692.776 4.222-2.894 2.711z" />
	<path fill="#FFF" d="M1204.002 686.986l-12.72.001v-27.09h26.496v27.088l-13.776.001z" />
	<path fill="#F9F9F8"
		d="M1158.13 553.175c-2.681.171-4.244.035-4.16-3.034.216-7.802.072-15.614.072-23.814h26.755v26.849l-22.667-.001z" />
	<path fill="#CDE9F0"
		d="M1002.96 988.663c-6.33-.128-8.094-5.257-9.669-10.064-1.01-3.085-1.153-6.555-1.158-9.853-.056-36.922-.032-73.845.05-110.767.008-3.308.3-6.666.933-9.908 1.07-5.488 3.947-10.022 9.162-12.322 3.414-1.506 4.623-3.612 4.54-7.193-.227-9.8-.224-19.606-.395-29.785 1.895-.764 3.872-1.151 6.198-1.607v37.568c-14.035 3.265-17.577 7.617-17.6 22.17-.062 37.814.003 75.63.002 113.445 0 7.148 1.687 13.532 7.936 18.316z" />
	<path fill="#D3EDF5"
		d="M854.896 989.734c-5.472-.136-9.147-3.384-10.749-8.497-1.221-3.898-2.01-8.108-2.02-12.182-.09-37.257.066-74.513.064-111.77 0-9.67 2.671-17.634 12.075-22.23 1.094-.535 1.767-2.942 1.793-4.494.17-10.476.111-20.956.099-31.885 1.86-.665 3.748-.88 5.872-1.123v37.34c-14.033 4.414-16.921 8.465-16.931 23.45-.024 35.922-.072 71.843-.056 107.764.001 3.478.149 6.986.628 10.425.804 5.766 3.693 10.244 9.225 13.202z" />
	<path fill="#F9F9F8"
		d="M1207.88 489.784c1.791-.004 3.096-.004 4.675-.004v25.988h-26.028v-25.981c7 0 13.932 0 21.352-.003z" />
	<path fill="#227CB9"
		d="M1051.981 1324.575c-7.794 2.047-15.56 4.215-23.42 5.97-.882.198-3.27-1.919-3.296-3.002a753.187 753.187 0 01-.05-32.42c.024-1.29 1.442-3.158 2.685-3.722 8.04-3.646 10.095-10.493 10.21-18.386.122-8.313.029-16.629.056-24.943.019-5.998.598-6.777 7.002-6.736 11.62.075 23.238.462 35.256 1.223.421 11.322.752 22.15.395 32.956-.575 17.382-7.374 31.868-21.221 42.776-.983.774-1.72 1.858-2.572 2.798 0 0-.015-.073-.328-.126-1.403.361-2.491.775-3.588.836 1.7-1.865 3.352-3.445 5.123-4.876 9.596-7.757 17.013-17.267 18.683-29.596 1.616-11.94 1.576-24.113 2.053-36.191.234-5.908-1.017-7.07-6.828-7.117-8.659-.07-17.32.115-25.975-.08-3.866-.089-5.265 1.235-5.291 5.182-.063 9.453-.569 18.904-.867 28.356-.21 6.677-3.195 11.58-8.918 15.09-1.419.871-2.93 2.902-2.99 4.455-.3 7.741-.139 15.5-.125 23.254.012 6.693.482 7.152 7.064 6.709 1.143-.077 2.289-.35 3.397-.66 4.916-1.378 9.818-2.8 14.57-3.893-.445.924-.735 1.533-1.025 2.143z" />
	<path fill="#CDE9F0"
		d="M1055.339 1014.052c15.287-13.465 20.761-31.115 20.733-51.097-.046-31.766-.252-63.535.106-95.298.233-20.704-4.063-39.576-18.4-55.413 10.977 7.45 16.15 18.632 19.02 30.986a79.048 79.048 0 012.031 17.305c.196 34.623.176 69.248.103 103.872-.029 13.9-2.78 27.154-10.982 38.733-2.289 3.23-5.107 6.124-7.936 8.914-1.058 1.044-2.84 1.353-4.675 1.998z" />
	<path fill="#227CB9"
		d="M1081.044 1186.533c-12.974.136-25.949.355-38.921.265-1.178-.008-3.188-1.892-3.35-3.101-.461-3.416-.074-6.936-.179-10.41-.199-6.614-.17-13.26-.884-19.822-.51-4.691-3.318-8.602-7.89-10.144-4.618-1.558-5.518-4.905-5.478-8.852.095-9.434.477-18.864.61-28.297.04-2.877 1.641-3.347 3.892-3.069 10.107 1.248 20.02 3.156 29.071 9.376.615 1.143.947 1.708.9 2.357-1.436-.294-2.491-.68-3.553-1.05-7.441-2.588-14.81-5.42-22.356-7.656-3.896-1.154-6.202.487-5.99 5.203.315 6.973.068 13.97.096 20.958.017 4.255 1.664 7.143 5.448 9.79 3.243 2.27 6.683 6.314 7.22 9.984 1.31 8.964 1.105 18.164 1.26 27.273.058 3.389 1.202 4.822 4.682 4.738 6.484-.157 12.975-.045 19.463-.044 13.949.002 13.904.002 13.955-13.855.043-11.82-.68-23.507-5.3-34.604-1.494-3.591-3-7.177-4.214-10.583 6.02 7.965 9.714 16.687 10.376 26.278.81 11.726.799 23.508 1.142 35.265z" />
	<path fill="#D3EDF5"
		d="M1232.717 1326.747c-.389-27.836-.412-55.444-.48-83.053-.026-10.812-.152-21.622-.282-32.864 2.87-1.37 3.332.22 3.306 2.641-.073 6.98-.06 13.962-.035 20.943.106 29.42.258 58.84.263 88.26 0 1.548 1.866 4.88-2.772 4.073z" />
	<path fill="#F9F9F8"
		d="M1300.875 872.09c-5.307-.012-10.126-.012-15.26-.012v-16.843h17.496c0 5.076.041 10.33-.076 15.578-.01.442-1.09.86-2.16 1.276z" />
	<path fill="#CDE9F0"
		d="M899.35 1017.381c2.445-2.452 5.108-4.793 7.689-7.221 11.696-11.002 15.57-25.095 15.797-40.545.148-10.12.062-20.244.046-30.797 1.021.216 3.008.88 2.997 1.509-.274 16.065 1.43 32.271-2.87 48.083-3.026 11.133-9.156 20.184-18.655 26.816-1.43.998-3.208 1.497-5.004 2.155zM1057.373 1321.238c.504-1.089 1.242-2.173 2.225-2.947 13.847-10.908 20.646-25.394 21.221-42.776.357-10.805.026-21.634.034-32.905 1.058.342 3.005 1.167 2.98 1.926-.479 14.4-.082 28.956-2.158 43.144-2.153 14.709-10.77 26.16-24.302 33.558z" />
	<path fill="#DFF2F2"
		d="M856.249 1026.824c-.584-12.163-.737-24.14-1.08-36.512 1.921-.236 4.034-.077 6.41.102v36.596c-1.747 0-3.324 0-5.33-.186z" />
	<path fill="#CDE9F0"
		d="M1081.424 1186.625c-.723-11.85-.712-23.631-1.522-35.357-.662-9.591-4.356-18.313-10.389-26.263-.3-.167-.326-.14-.388-.475-2.442-3.04-4.821-5.745-7.047-8.628.154-.178.424-.562.424-.562 12.92 9.013 18.9 22.045 20.31 37.137.968 10.374.591 20.877.664 31.323.006.968-1.089 1.944-2.052 2.825z" />
	<path fill="#D3EDF5"
		d="M922.685 879.676c.29-17.192 1.635-34.238-5.758-50.252-1.796-3.89-4.347-7.43-6.69-11.792-.04-1.099.056-1.537.152-1.975 10.833 10.568 14.138 24.196 15.227 38.54.591 7.795.256 15.657.461 23.486.068 2.574-.654 3.518-3.392 1.993z" />
	<path fill="#CDE9F0"
		d="M1232.347 1183.588c-.292-13.451.514-26.741-3.341-39.676-2.941-9.867-7.614-18.666-15.885-25.574 1.639.5 3.683.974 4.997 2.218 11.315 10.726 15.495 24.545 16.45 39.567.444 6.973.347 13.986.272 20.98-.01.907-1.362 1.8-2.493 2.485z" />
	<path fill="#DFF2F2"
		d="M1008.018 990.218c3.202-.462 4.87.318 4.785 4.161-.236 10.624-.082 21.257-.082 32.531-1.312.089-2.687.181-4.4-.295-.328-12.511-.316-24.454-.303-36.397z" />
	<path fill="#F9F9F8"
		d="M1016.293 1330.202c-.288-12.271-.272-24.415-.214-37.048 1.33-.49 2.619-.49 4.337-.49 0 11.91-.076 23.357.05 34.8.034 3.139-1.743 3.048-4.173 2.738z" />
	<path fill="#DFF2F2"
		d="M1167.432 1330.37c-.433-11.938-.429-23.731-.41-35.995 1.453-.47 2.891-.47 4.86-.47 0 11.647-.057 22.773.037 33.898.027 3.27-2.087 2.73-4.487 2.566z" />
	<path fill="#383939"
		d="M1321.636 915.638c1.25-1.477 2.186-2.886 3.498-3.533 1.068-.526 2.624.059 3.898-.19 6.529-1.271 6.514-1.311 5.077 5.484-.201.952-.298 1.926-.552 3.606-2.764 0-5.517-.157-8.245.037-3.994.285-5.11-1.381-3.676-5.404z" />
	<path fill="#CDE9F0"
		d="M1189.138 930.9c.01 12.623-.03 25.075.029 37.673.04-12.517-.02-25.18-.03-37.672zM1007.662 990.1c.343 12.06.331 24.004.33 36.414-.39.392-.79.317-1.433.032-.19-10.638.019-21.07-.23-31.492-.044-1.814-2.021-3.581-3.23-5.744 1.32-.025 2.763.323 4.563.79zM1161.468 995.074c-.147 9.027-.062 17.962.156 27.087.039-6.26-.087-12.711-.132-19.162-.019-2.672.134-5.345-.024-7.925zM1189.217 886.93c-.093 8.993-.166 17.836-.118 26.785.128-8.907.133-17.92.118-26.784zM1193.352 1323.014c3.917-4.495 8.177-9.04 12.53-13.264-4 4.619-8.094 8.916-12.53 13.264zM910.377 815.666c-.084.429-.18.867-.278 1.642-4.688-3.673-9.374-7.684-14.092-12.034a153.807 153.807 0 0113.533 9.614c.286.541.551.652.816.763 0 0 .008.023.02.015zM1209.894 808.58c-4.904-1.626-10.014-3.518-15.194-5.328 4.95 1.742 9.968 3.402 15.194 5.328zM1182.193 841.706c1.022 1.08 1.879 2.004 2.813 2.938-.942-1.025-1.96-2.059-2.813-2.938zM1162.19 837.304c1.086.185 2.018.46 3.004.71-1.016-.222-2.087-.421-3.003-.71zM1189.138 856.568c.035 1.25 0 2.265.05 3.35.016-1.148-.052-2.368-.05-3.35zM1180.466 984.234c-1.27.535-2.373.898-3.49 1.35-.125.13-.237.17-.349.21.139.057.322.2.409.156 1.206-.614 2.4-1.254 3.43-1.716zM1189.04 802.127c-.823.13-1.529.14-2.326.138.753-.093 1.598-.176 2.326-.138zM1187.38 1022.835c.719-.109 1.266-.105 1.892-.126-.634.063-1.348.15-1.891.126zM1164.648 987.16c-.655.091-1.148.075-1.735.016-.037-.082.022-.156.08-.156.606.004 1.212.02 1.655.14zM1187.842 974.841a5.96 5.96 0 00-.619 1.44c.241-.356.525-.71.68-1.112.097-.249-.001-.573-.012-.864.046.136.092.271-.049.536zM1053.118 1322.152c1.089-.414 2.177-.828 3.614-1.173-1.135 1.12-2.618 2.173-4.425 3.41-.036-.424.254-1.033.636-2.014.093-.371.175-.223.175-.223zM1188.253 851.069c.121-.096.193.106.168.111-.118.221-.21.438-.303.654.005-.223.01-.447.135-.765zM1189.324 1325.06c.79-.723 1.924-1.469 3.4-2.132-.79.759-1.924 1.435-3.4 2.133zM907.939 1115.667c-1.107-.176-2.345-.67-3.776-1.45 1.086.187 2.365.659 3.776 1.45zM1161.387 830.335c.086.122.103.273.092.254-.134.05-.256.119-.378.188-.042-.125-.138-.267-.108-.372.025-.086.2-.129.394-.07zM1057.93 811.635c-.907-.076-1.94-.478-3.106-1.232.906.067 1.942.486 3.106 1.232zM1175.091 838.632c.076-.099.197-.106.147-.09-.107.073-.165.13-.147.09zM1162.259 802.137c.08.094-.03.34-.017.274.013-.066-.34-.364-.34-.364s.277-.003.357.09zM1059.193 1114.75a31.393 31.393 0 01-1.104-2.006c.858.258 1.826.829 2.924 1.749.13.349.018.473-.3.514a8.015 8.015 0 01-1.558-.226c.006-.014.038-.03.038-.03zM893.846 803.857c-.497-.03-1.227-.232-2.154-.617.51.026 1.215.236 2.154.617zM888.021 801.528c-.04-.011-.046-.098.005-.082s.036.094-.005.082zM1187.694 1325.915c.148-.186.532-.447 1.149-.815-.15.176-.531.457-1.15.815zM1185.577 1326.682c.158-.032.478-.085.944-.19a6.518 6.518 0 01-.944.19z" />
	<path fill="#D3EDF5" d="M1105.715 1022.916c.07-.032-.008-.174-.041-.184-.033-.01-.028.217.041.184z" />
	<path fill="#CDE9F0"
		d="M890.621 802.55c-.094-.083-.316-.144-.667-.124.12.015.343.035.667.123zM895.852 804.81c-.395.041-1.008-.126-1.757-.584.423-.068.98.154 1.757.585zM1213.1 810.652c-.494.201-.965.083-1.592-.231.434-.16 1.025-.124 1.593.231zM903.95 1113.715c-.418.03-.959-.233-1.711-.719.388-.006.987.21 1.71.719zM1178.751 839.906c.06-.018-.034-.024-.068-.026-.033-.002.01.045.068.026zM1186.844 847.999c.084-.024 0-.183-.032-.201-.032-.018-.171.198-.171.198s.12.026.203.003z" />
	<path fill="#D3EDF5" d="M910.276 815.448c-.185.092-.45-.019-.589-.27.126-.14.509.068.59.27z" />
	<path fill="#CDE9F0"
		d="M1061.196 1114.776c.385-.06.686.04 1.13.401.176.163-.094.547-.514.648-.54-.22-.66-.54-.781-.86 0 0 .113-.123.165-.189z" />
	<path fill="#0286E0"
		d="M1053.099 1322.06a752.853 752.853 0 01-14.663 4.264c-1.108.31-2.254.584-3.397.661-6.582.443-7.052-.016-7.064-6.709-.014-7.753-.175-15.513.125-23.254.06-1.553 1.571-3.584 2.99-4.454 5.723-3.51 8.707-8.414 8.918-15.09.298-9.453.804-18.904.867-28.357.026-3.947 1.425-5.27 5.29-5.183 8.655.196 17.317.01 25.976.08 5.81.048 7.062 1.21 6.828 7.118-.477 12.078-.437 24.252-2.053 36.19-1.67 12.33-9.087 21.84-18.683 29.597-1.771 1.431-3.423 3.011-5.123 4.876.008.353-.074.205-.011.262zM1069.226 1124.823c1.513 3.573 3.02 7.159 4.515 10.75 4.62 11.097 5.342 22.783 5.299 34.604-.051 13.857-.006 13.857-13.955 13.855-6.488 0-12.979-.113-19.463.044-3.48.084-4.624-1.35-4.681-4.738-.156-9.11.048-18.31-1.262-27.273-.536-3.67-3.976-7.714-7.219-9.983-3.784-2.648-5.43-5.536-5.448-9.791-.028-6.987.219-13.985-.095-20.958-.213-4.716 2.093-6.357 5.989-5.203 7.546 2.236 14.915 5.068 22.356 7.657 1.062.37 2.117.755 3.553 1.049.378-.085.346-.07.308.307 3.33 3.491 6.697 6.606 10.064 9.721l.039-.04z" />
	<path fill="#227CB9"
		d="M1069.125 1124.53a128.604 128.604 0 01-10.008-9.373c.448-.278.864-.193 1.597-.15.438.278.558.598.945.995a133.097 133.097 0 017.466 8.528z" />
</svg>