<svg xmlns="http://www.w3.org/2000/svg" version="1.1" xmlns:xlink="http://www.w3.org/1999/xlink" width="200" height="200"><svg xmlns="http://www.w3.org/2000/svg" version="1.1" xmlns:xlink="http://www.w3.org/1999/xlink" viewBox="0 0 200 200"><rect width="200" height="200" fill="url('#gradient')"></rect><defs><linearGradient id="SvgjsLinearGradient1002" gradientTransform="rotate(360 0.5 0.5)"><stop offset="0%" stop-color="#f8f9fa"></stop><stop offset="100%" stop-color="#f8f9fa"></stop></linearGradient></defs><g><g fill="#0a74da" transform="matrix(2.0949559082892417,0,0,2.0949559082892417,11.590709374110752,114.89939394451324)" stroke="#212529" stroke-width="0.75"><path d="M9.17-4.81L12.58-4.81Q12.51-3.33 11.78-2.19Q11.04-1.05 9.72-0.43Q8.40 0.20 6.70 0.20L6.70 0.20Q3.90 0.20 2.29-1.63Q0.67-3.46 0.67-6.79L0.67-6.79L0.67-7.49Q0.67-9.58 1.40-11.15Q2.13-12.71 3.50-13.57Q4.86-14.42 6.66-14.42L6.66-14.42Q9.25-14.42 10.82-13.06Q12.39-11.70 12.61-9.31L12.61-9.31L9.19-9.31Q9.15-10.61 8.54-11.17Q7.92-11.74 6.66-11.74L6.66-11.74Q5.38-11.74 4.79-10.78Q4.19-9.82 4.16-7.72L4.16-7.72L4.16-6.72Q4.16-4.44 4.73-3.47Q5.30-2.49 6.70-2.49L6.70-2.49Q7.88-2.49 8.51-3.05Q9.13-3.60 9.17-4.81L9.17-4.81ZM26.24-7.47L26.24-6.82Q26.24-4.74 25.47-3.13Q24.70-1.53 23.28-0.67Q21.86 0.20 20.04 0.20Q18.22 0.20 16.82-0.64Q15.41-1.47 14.62-3.03Q13.84-4.58 13.80-6.59L13.80-6.59L13.80-7.39Q13.80-9.48 14.57-11.08Q15.33-12.68 16.76-13.54Q18.19-14.41 20.02-14.41L20.02-14.41Q21.83-14.41 23.24-13.55Q24.66-12.70 25.44-11.11Q26.23-9.52 26.24-7.47L26.24-7.47ZM22.75-6.76L22.75-7.41Q22.75-9.53 22.05-10.63Q21.34-11.73 20.02-11.73L20.02-11.73Q17.44-11.73 17.29-7.86L17.29-7.86L17.29-6.82Q17.29-4.73 17.98-3.60Q18.67-2.48 20.04-2.48L20.04-2.48Q21.34-2.48 22.04-3.58Q22.74-4.69 22.75-6.76L22.75-6.76ZM32.69 0L28.01 0L28.01-14.22L32.59-14.22Q34.47-14.22 35.98-13.36Q37.48-12.51 38.33-10.95Q39.17-9.39 39.18-7.46L39.18-7.46L39.18-6.81Q39.18-4.85 38.35-3.31Q37.53-1.76 36.03-0.88Q34.53-0.01 32.69 0L32.69 0ZM32.59-11.57L31.44-11.57L31.44-2.64L32.63-2.64Q34.10-2.64 34.89-3.69Q35.68-4.74 35.68-6.81L35.68-6.81L35.68-7.42Q35.68-9.48 34.89-10.53Q34.10-11.57 32.59-11.57L32.59-11.57ZM53.71 0L51.20-5.02L49.35-5.02L49.35 0L45.92 0L45.92-14.22L51.51-14.22Q54.04-14.22 55.47-13.10Q56.89-11.97 56.89-9.92L56.89-9.92Q56.89-8.44 56.29-7.46Q55.69-6.48 54.41-5.88L54.41-5.88L57.38-0.15L57.38 0L53.71 0ZM49.35-11.57L49.35-7.67L51.51-7.67Q52.49-7.67 52.98-8.18Q53.48-8.69 53.48-9.61Q53.48-10.53 52.98-11.05Q52.48-11.57 51.51-11.57L51.51-11.57L49.35-11.57ZM67.06-4.81L70.47-4.81Q70.40-3.33 69.67-2.19Q68.94-1.05 67.61-0.43Q66.29 0.20 64.59 0.20L64.59 0.20Q61.79 0.20 60.18-1.63Q58.56-3.46 58.56-6.79L58.56-6.79L58.56-7.49Q58.56-9.58 59.29-11.15Q60.02-12.71 61.39-13.57Q62.75-14.42 64.55-14.42L64.55-14.42Q67.14-14.42 68.71-13.06Q70.28-11.70 70.50-9.31L70.50-9.31L67.08-9.31Q67.04-10.61 66.43-11.17Q65.81-11.74 64.55-11.74L64.55-11.74Q63.27-11.74 62.68-10.78Q62.08-9.82 62.05-7.72L62.05-7.72L62.05-6.72Q62.05-4.44 62.62-3.47Q63.19-2.49 64.59-2.49L64.59-2.49Q65.77-2.49 66.40-3.05Q67.02-3.60 67.06-4.81L67.06-4.81ZM83.73-7.60L83.73-1.76Q82.94-0.88 81.42-0.34Q79.89 0.20 78.08 0.20L78.08 0.20Q75.28 0.20 73.61-1.51Q71.94-3.22 71.83-6.27L71.83-6.27L71.82-7.50Q71.82-9.60 72.56-11.17Q73.30-12.73 74.68-13.58Q76.06-14.42 77.88-14.42L77.88-14.42Q80.54-14.42 82.01-13.21Q83.48-11.99 83.72-9.58L83.72-9.58L80.42-9.58Q80.24-10.77 79.66-11.28Q79.07-11.79 78.00-11.79L78.00-11.79Q76.71-11.79 76.01-10.69Q75.30-9.60 75.29-7.57L75.29-7.57L75.29-6.71Q75.29-4.58 76.02-3.51Q76.75-2.44 78.31-2.44L78.31-2.44Q79.65-2.44 80.30-3.04L80.30-3.04L80.30-5.24L77.92-5.24L77.92-7.60L83.73-7.60Z"></path></g></g></svg><style>@media (prefers-color-scheme: light) { :root { filter: none; } }
@media (prefers-color-scheme: dark) { :root { filter: none; } }
</style></svg>